<?xml version="1.0" encoding="utf-8"?>
<!-- Generator: Adobe Illustrator 25.4.0, SVG Export Plug-In . SVG Version: 6.00 Build 0)  -->
<svg version="1.1" id="Layer_1" xmlns="http://www.w3.org/2000/svg" xmlns:xlink="http://www.w3.org/1999/xlink" x="0px" y="0px"
	 viewBox="0 0 300 300" style="enable-background:new 0 0 300 300;" xml:space="preserve">
<style type="text/css">
	.st0{fill:#FFFFFF;}
</style>
<rect class="st0" width="300" height="300"/>
<g id="_x36_40fb903-7c97-3a8b-d0a7-369102908d0a" transform="matrix(0.8499999999999999,0,0,0.8499999999999999,22.500006484985377,22.50005836486818)">
	<g>
		<path d="M150,275.4c33.6,0,65.1-12.9,88.8-36.6c23.7-23.7,36.6-55.2,36.6-88.8c0-33.6-12.9-65.1-36.6-88.8
			c-23.7-23.7-55.2-36.6-88.8-36.6S84.9,37.5,61.2,61.2C37.5,84.9,24.6,116.4,24.6,150s12.9,65.1,36.6,88.8S116.4,275.4,150,275.4z
			 M157.2,254.1c-2.4,0.3-4.8,0.3-7.2,0.3c-3.3,0-6.6-0.3-9.9-0.6c-10.8-16.8-18.9-34.8-23.7-53.7h53.1c1.8,4.5,5.1,8.7,9,11.4
			C173.4,226.5,166.2,240.6,157.2,254.1z M185.7,248.1c5.7-10.5,10.2-21,13.8-32.1c8.7-1.8,15.6-7.8,18.9-15.9h23.1
			C229.5,222,209.4,239.1,185.7,248.1z M254.1,150c0,9.9-1.5,19.5-3.9,28.8h-32.4c-1.8-3.9-4.8-7.5-8.4-10.2
			c0.6-6.6,0.9-13.2,0.9-19.8c0-9.3-0.6-18.6-1.8-27.6h41.4C252.9,130.2,254.1,140.1,254.1,150L254.1,150z M241.5,99.9h-36.6
			c-3.9-16.5-9.6-32.1-17.4-47.1C210.3,61.5,229.5,78.6,241.5,99.9z M189.3,148.8c0,5.1-0.3,10.2-0.6,15.3
			c-8.4,1.8-15.3,7.2-18.6,14.7h-57.9c-1.2-9-2.1-18.3-2.1-27.3c0-5.7,0.3-11.4,0.9-17.1c7.8-1.5,14.1-6.6,18-13.2h58.5
			C188.7,130.2,189.3,139.5,189.3,148.8L189.3,148.8z M142.2,46.2c2.7-0.3,5.4-0.3,7.8-0.3c3,0,6,0,9,0.3
			C169.8,63,177.9,81,182.7,99.9h-52.2c-1.8-5.1-5.1-9.6-9.3-12.9C126.6,72.6,133.5,59.1,142.2,46.2L142.2,46.2z M113.7,52.2
			c-5.1,9.6-9.6,19.8-13.2,30c-9.3,1.8-16.8,8.7-19.8,17.4H58.8C70.5,78.3,90,61.2,113.7,52.2z M45.9,150c0-9.9,1.5-19.8,4.2-28.8
			h32.7c1.8,3.3,4.5,6.3,7.5,8.7c-0.6,7.2-1.2,14.4-1.2,21.6c0,9.3,0.6,18.3,1.8,27.3H50.1C47.1,169.5,45.9,159.9,45.9,150z
			 M94.5,199.8c3.9,16.2,9.6,32.1,17.4,47.1c-22.8-9-41.7-25.8-53.4-47.1H94.5z"/>
	</g>
</g>
</svg>
